<svg xmlns="http://www.w3.org/2000/svg" viewBox="0 0 64 64" role="img" aria-label="chuds.dev">
  <rect width="64" height="64" rx="10" fill="#fffdf7"/>
  <path d="M7 7h50v50H7z" fill="none" stroke="#090909" stroke-width="5"/>
  <path d="M12 52h40" stroke="#090909" stroke-width="3" stroke-linecap="square"/>
  <path d="M47.5 19.5c-3.9-4.1-8.9-6.2-15-6.2-5.9 0-10.8 1.9-14.6 5.8-3.9 3.9-5.8 8.7-5.8 14.5 0 5.7 1.9 10.4 5.8 14.1 3.8 3.8 8.7 5.7 14.6 5.7 6.6 0 11.8-2.4 15.7-7.1l-6.6-6.1c-2.2 2.7-5.1 4-8.8 4-3.1 0-5.7-1-7.7-3.1-2-2-3-4.6-3-7.7 0-3.2 1-5.8 3.1-7.9 2-2.1 4.6-3.1 7.8-3.1 3.5 0 6.3 1.3 8.4 3.8l6.1-6.7z" fill="#090909"/>
  <path d="M19 12 9 22M26 10 8 28M54 36 39 51M56 43 46 53" stroke="#090909" stroke-width="1.7" opacity=".28"/>
</svg>
